<?xml version="1.0" encoding="UTF-8"?>
<svg id="Layer_1" data-name="Layer 1" xmlns="http://www.w3.org/2000/svg" viewBox="0 0 669.39 100">
  <g>
    <rect y="25.17" width="30.4" height="74.83" rx="4.02" ry="4.02" style="fill: #bd3635; stroke-width: 0px;"/>
    <rect x="36.41" y="37.26" width="30.4" height="62.74" rx="4" ry="4" style="fill: #bd3635; stroke-width: 0px;"/>
    <rect x="72.83" width="30.4" height="100" rx="4.05" ry="4.05" style="fill: #bd3635; stroke-width: 0px;"/>
  </g>
  <g>
    <path d="m146.46,73.17c-1.91-1-3.09-2.27-3.09-4.35,0-2.72,2.09-4.17,3.99-4.17,1.54,0,2.9.73,4.63,1.36,2.09.91,4.9,1.72,7.71,1.72,4.54,0,6.53-1.54,6.53-3.63,0-2.54-3.08-3.63-8.8-5.44-6.99-2.18-13.34-4.9-13.34-12.61,0-6.99,5.44-12.25,15.69-12.25,4.45,0,8.8,1.09,11.16,2.09,1.81.63,3.63,1.9,3.63,4.35,0,2.72-1.81,4.35-3.99,4.35-1.27,0-2.63-.64-4.17-1.09-2.09-.64-4.35-1.18-6.71-1.18-3.99,0-5.81,1.45-5.81,3.45,0,2.45,2.54,3.36,9.34,5.53,6.99,2.27,12.7,4.9,12.7,12.25s-5.72,12.7-15.97,12.7c-6.17,0-11.16-1.81-13.52-3.08Z" style="fill: #bd3635; stroke: #be3636; stroke-miterlimit: 10; stroke-width: 3px;"/>
    <path d="m223.21,44.23v48.72c0,2.9-2.27,5.26-5.17,5.26s-5.17-2.36-5.17-5.26v-19.78c-2.36,1.81-5.63,3.08-9.8,3.08-11.61,0-20.14-9.53-20.14-21.14s8.07-21.5,22.14-21.5c4.9,0,10.43,1.54,13.88,3.63,3.18,1.81,4.26,3.54,4.26,6.99Zm-10.34,19.87v-18.96c-2.27-1.45-4.9-2.18-7.53-2.18-7.17,0-11.88,5.08-11.88,12.16,0,6.71,4.72,11.88,11.34,11.88,2.9,0,5.62-.82,8.07-2.9Z" style="fill: #bd3635; stroke: #be3636; stroke-miterlimit: 10; stroke-width: 3px;"/>
    <path d="m271.83,39.51v30.94c0,2.9-2.27,5.17-5.17,5.17s-5.17-2.27-5.17-5.17v-.54c-3.27,3.9-7.53,6.26-12.7,6.26-7.71,0-14.24-5.17-14.24-14.61v-22.04c0-2.9,2.36-5.35,5.08-5.35s5.26,2.45,5.26,5.35v19.87c0,4.81,2.63,7.8,7.26,7.8,3.81,0,7.17-2.27,9.34-6.35v-21.32c0-2.9,2.36-5.35,5.17-5.35s5.17,2.45,5.17,5.35Z" style="fill: #bd3635; stroke: #be3636; stroke-miterlimit: 10; stroke-width: 3px;"/>
    <path d="m315.64,47.31v23.41c0,2.81-2.18,5.08-4.99,5.08-2.63,0-4.9-2.27-4.9-5.08-3.99,3.54-8.35,5.53-12.97,5.53-7.26,0-12.16-5.08-12.16-11.34,0-5.72,3.45-9.16,9.25-11.25,4.72-1.63,10.8-2.18,15.88-2.72v-2.54c0-3.99-2.45-5.62-7.26-5.62-2.99,0-5.35.73-6.99,1.45-1.36.45-2.45.82-3.18.82-2.54,0-4.36-1.81-4.36-4.17,0-1.54.73-3.08,2.72-4.17,3.08-1.63,8.44-2.9,13.06-2.9,9.8,0,15.88,4.9,15.88,13.52Zm-19.78,20.59c3.08,0,6.8-1.54,9.89-3.9v-6.53c-3.18.45-6.44.91-8.98,1.54-4.35,1-6.08,2.45-6.08,4.81s2,4.08,5.17,4.08Z" style="fill: #bd3635; stroke: #be3636; stroke-miterlimit: 10; stroke-width: 3px;"/>
    <path d="m354.2,38.88c0,3.08-2.36,5.26-5.17,5.26-4.17,0-8.44,1.27-11.61,6.26v20.05c0,2.9-2.36,5.35-5.17,5.35s-5.17-2.45-5.17-5.35v-30.94c0-2.9,2.27-5.17,5.17-5.17s5.17,2.27,5.17,5.17v2.27c3.36-5.72,7.44-7.8,11.61-7.8,3.08,0,5.17,2.09,5.17,4.9Z" style="fill: #bd3635; stroke: #be3636; stroke-miterlimit: 10; stroke-width: 3px;"/>
    <path d="m396.38,51.76c0,1.54-.27,2.72-1.18,3.81-1,1.18-2.54,1.45-4.9,1.45h-22.86c1.09,6.62,6.17,10.16,12.97,10.16,2.54,0,4.81-.64,6.44-1.18,1.45-.36,2.27-.63,3.27-.63,2.36,0,4.08,1.91,4.08,4.17,0,1.72-1,3.36-2.99,4.26-2.99,1.45-7.08,2.45-11.61,2.45-12.7,0-22.32-8.44-22.32-21.32,0-12.16,8.62-21.14,20.68-21.14s18.42,8.62,18.42,17.96Zm-9.25-1.36c-.09-4.63-3.63-8.53-9.34-8.53-5.26,0-8.89,3.18-10.07,8.53h19.41Z" style="fill: #bd3635; stroke: #be3636; stroke-miterlimit: 10; stroke-width: 3px;"/>
    <path d="m444.46,70.63c0,2.9-2.27,5.17-5.08,5.17s-5.08-2.27-5.08-5.17v-.27c-2.9,3.54-7.17,5.9-11.88,5.9-11.43,0-19.23-9.8-19.23-21.23s7.8-21.23,19.23-21.23c5.35,0,9.16,2,11.61,4.26V15.92c0-2.81,2.27-5.26,5.17-5.26s5.17,2.36,5.17,5.26l.09,54.7Zm-10.43-8.8v-13.97c-1.91-2.99-5.35-4.9-9.25-4.9-5.9,0-10.98,4.9-10.98,12.07s5.08,11.97,10.98,11.97c3.9,0,7.17-2,9.25-5.17Z" style="fill: #bd3635; stroke: #be3636; stroke-miterlimit: 10; stroke-width: 3px;"/>
    <path d="m477.75,73.17c-1.91-1-3.09-2.27-3.09-4.35,0-2.72,2.09-4.17,3.99-4.17,1.54,0,2.9.73,4.63,1.36,2.09.91,4.9,1.72,7.71,1.72,4.54,0,6.53-1.54,6.53-3.63,0-2.54-3.08-3.63-8.8-5.44-6.99-2.18-13.34-4.9-13.34-12.61,0-6.99,5.44-12.25,15.69-12.25,4.45,0,8.8,1.09,11.16,2.09,1.81.63,3.63,1.9,3.63,4.35,0,2.72-1.81,4.35-3.99,4.35-1.27,0-2.63-.64-4.17-1.09-2.09-.64-4.35-1.18-6.71-1.18-3.99,0-5.81,1.45-5.81,3.45,0,2.45,2.54,3.36,9.34,5.53,6.99,2.27,12.7,4.9,12.7,12.25s-5.72,12.7-15.97,12.7c-6.17,0-11.16-1.81-13.52-3.08Z" style="fill: #bd3635; stroke: #be3636; stroke-miterlimit: 10; stroke-width: 3px;"/>
    <path d="m553.5,39.51v30.94c0,2.9-2.27,5.17-5.17,5.17s-5.17-2.27-5.17-5.17v-.54c-3.27,3.9-7.53,6.26-12.7,6.26-7.71,0-14.24-5.17-14.24-14.61v-22.04c0-2.9,2.36-5.35,5.08-5.35s5.26,2.45,5.26,5.35v19.87c0,4.81,2.63,7.8,7.26,7.8,3.81,0,7.17-2.27,9.34-6.35v-21.32c0-2.9,2.36-5.35,5.17-5.35s5.17,2.45,5.17,5.35Z" style="fill: #bd3635; stroke: #be3636; stroke-miterlimit: 10; stroke-width: 3px;"/>
    <path d="m626.25,48.22v22.23c0,2.9-2.36,5.35-5.17,5.35s-5.17-2.45-5.17-5.35v-20.05c0-5.72-3.27-7.53-6.71-7.53s-6.35,2.18-8.26,5.62v21.95c0,2.9-2.36,5.35-5.17,5.35s-5.17-2.45-5.17-5.35v-20.14c0-5.62-3.27-7.44-6.62-7.44-3.54,0-6.44,2.18-8.35,5.81v21.77c0,2.9-2.27,5.35-5.17,5.35s-5.17-2.45-5.17-5.35v-30.84c0-2.9,2.36-5.26,5.17-5.26s5.17,2.36,5.17,5.26v.18c2.99-3.81,6.8-6.08,11.88-6.08,4.72,0,9.43,2,11.79,6.8,3.63-4.63,7.8-6.8,13.34-6.8,6.99,0,13.61,4.17,13.61,14.51Z" style="fill: #bd3635; stroke: #be3636; stroke-miterlimit: 10; stroke-width: 3px;"/>
    <path d="m638.4,73.17c-1.91-1-3.09-2.27-3.09-4.35,0-2.72,2.09-4.17,3.99-4.17,1.54,0,2.9.73,4.63,1.36,2.09.91,4.9,1.72,7.71,1.72,4.54,0,6.53-1.54,6.53-3.63,0-2.54-3.08-3.63-8.8-5.44-6.99-2.18-13.34-4.9-13.34-12.61,0-6.99,5.44-12.25,15.69-12.25,4.45,0,8.8,1.09,11.16,2.09,1.81.63,3.63,1.9,3.63,4.35,0,2.72-1.81,4.35-3.99,4.35-1.27,0-2.63-.64-4.17-1.09-2.09-.64-4.35-1.18-6.71-1.18-3.99,0-5.81,1.45-5.81,3.45,0,2.45,2.54,3.36,9.34,5.53,6.99,2.27,12.7,4.9,12.7,12.25s-5.72,12.7-15.97,12.7c-6.17,0-11.16-1.81-13.52-3.08Z" style="fill: #bd3635; stroke: #be3636; stroke-miterlimit: 10; stroke-width: 3px;"/>
  </g>
</svg>